<?xml version="1.0" encoding="iso-8859-1"?>
<!-- Uploaded to: SVG Repo, www.svgrepo.com, Generator: SVG Repo Mixer Tools -->
<svg version="1.1" id="Layer_1" xmlns="http://www.w3.org/2000/svg" xmlns:xlink="http://www.w3.org/1999/xlink" 
	 viewBox="0 0 512 512" xml:space="preserve">
<circle cx="256" cy="256" r="256"/>
<g>
	<rect x="244.32" y="206.08" style="fill:#FFFFFF;" width="23.36" height="23.36"/>
	<rect x="197.6" y="206.08" style="fill:#FFFFFF;" width="23.36" height="23.36"/>
	<rect x="150.8" y="206.08" style="fill:#FFFFFF;" width="23.36" height="23.36"/>
	<rect x="291.12" y="206.08" style="fill:#FFFFFF;" width="23.36" height="23.36"/>
	<rect x="337.92" y="206.08" style="fill:#FFFFFF;" width="23.36" height="23.36"/>
	<rect x="244.32" y="252.88" style="fill:#FFFFFF;" width="23.36" height="23.36"/>
	<rect x="291.12" y="252.88" style="fill:#FFFFFF;" width="23.36" height="23.36"/>
	<rect x="337.92" y="252.88" style="fill:#FFFFFF;" width="23.36" height="23.36"/>
</g>
<path style="fill:#F33052;" d="M384.72,152c4,0,7.36,3.36,7.36,7.36v163.68c0,4-3.36,7.36-7.36,7.36h-46.8h-16v16v36.88
	l-61.68-49.36l-4.4-3.52h-5.6h-122.8c-4,0-7.36-3.36-7.36-7.36V159.36c0-4,3.36-7.36,7.36-7.36H384.72 M384.72,136H127.44
	c-12.88,0-23.36,10.56-23.36,23.36v163.68c0,12.88,10.56,23.36,23.36,23.36h122.8l87.68,70.16V346.4h46.8
	c12.88,0,23.36-10.56,23.36-23.36V159.36C408.08,146.48,397.52,136,384.72,136L384.72,136z"/>
</svg>